<?xml version="1.0" encoding="UTF-8" standalone="no"?>
<!-- Created with Inkscape (http://www.inkscape.org/) -->

<svg
   width="35mm"
   height="35mm"
   viewBox="0 0 35 35"
   version="1.1"
   id="svg1"
   inkscape:version="1.3.2 (091e20ef0f, 2023-11-25, custom)"
   sodipodi:docname="gex2-squered.svg"
   xmlns:inkscape="http://www.inkscape.org/namespaces/inkscape"
   xmlns:sodipodi="http://sodipodi.sourceforge.net/DTD/sodipodi-0.dtd"
   xmlns="http://www.w3.org/2000/svg"
   xmlns:svg="http://www.w3.org/2000/svg">
  <sodipodi:namedview
     id="namedview1"
     pagecolor="#505050"
     bordercolor="#ffffff"
     borderopacity="1"
     inkscape:showpageshadow="0"
     inkscape:pageopacity="0"
     inkscape:pagecheckerboard="1"
     inkscape:deskcolor="#505050"
     inkscape:document-units="mm"
     showgrid="true"
     inkscape:zoom="3.3638608"
     inkscape:cx="61.239157"
     inkscape:cy="112.22224"
     inkscape:window-width="956"
     inkscape:window-height="1175"
     inkscape:window-x="0"
     inkscape:window-y="0"
     inkscape:window-maximized="0"
     inkscape:current-layer="layer1">
    <inkscape:grid
       id="grid1"
       units="mm"
       originx="0"
       originy="0"
       spacingx="2.5"
       spacingy="2.5"
       empcolor="#0099e5"
       empopacity="0.30196078"
       color="#0099e5"
       opacity="0.14901961"
       empspacing="5"
       dotted="false"
       gridanglex="30"
       gridanglez="30"
       visible="true" />
  </sodipodi:namedview>
  <defs
     id="defs1" />
  <g
     inkscape:label="Warstwa 1"
     inkscape:groupmode="layer"
     id="layer1">
    <path
       id="rect30"
       style="fill:#b07123;fill-opacity:1;stroke:#b07123;stroke-width:0.123759;stroke-linejoin:miter;stroke-dasharray:none;stroke-opacity:1;paint-order:normal"
       d="m 7.046859,12.561879 c -1.0997425,0 -1.9849796,0.880848 -1.9849796,1.975107 v 5.925829 c 0,1.09426 0.8852371,1.975106 1.9849796,1.975106 h 3.970473 c 1.099743,0 1.98498,-0.880846 1.98498,-1.975106 v -2.469138 l 0.99249,7.7e-5 v -0.98763 h -1.98498 -3.9704727 v 0.494031 0.493522 h 3.9704727 v 1.975616 c 0,0.820705 -0.664184,1.481075 -1.488991,1.481075 H 7.5433601 c -0.8248068,0 -1.4889909,-0.660371 -1.4889909,-1.481075 v -4.938276 c 0,-0.820704 0.6641841,-1.481585 1.4889909,-1.481585 h 2.9774709 c 0.824807,0 1.488991,0.660881 1.488991,1.481585 h 0.99249 v -0.494031 c 0,-1.094259 -0.885237,-1.975107 -1.98498,-1.975107 z"
       sodipodi:nodetypes="ssssssccccccccsssssssccsss" />
    <path
       id="rect33"
       style="fill:#98b023;fill-opacity:1;stroke:#98b023;stroke-width:0.123759;stroke-linejoin:miter;stroke-dasharray:none;stroke-opacity:1;paint-order:normal"
       d="m 13.994802,12.561879 v 9.876043 h 0.992488 2.97747 L 18.709,21.450369 h -3.72171 v -3.456691 h 6.32783 l 0.371863,-0.493522 -0.372377,-0.494031 H 14.98729 V 13.549433 H 18.709 l -0.74424,-0.987554 h -2.97747 z m 4.71471,0 0.248252,0.329185 v -0.329185 z m 3.349847,4.444245 0.372376,0.494031 -0.372376,0.493522 h 1.364867 v -0.493522 -0.494031 z m -3.101595,5.102613 -0.248252,0.329184 h 0.248252 z"
       sodipodi:nodetypes="ccccccccccccccccccccccccccccccc" />
    <path
       id="path38"
       style="fill:#23b03b;fill-opacity:1;stroke:#23b03b;stroke-width:0.123759;stroke-dasharray:none;stroke-opacity:1"
       d="m 18.709327,12.561805 3.722252,4.938276 -3.722252,4.937768 h 1.488747 L 23.17595,18.487635 23.920333,17.499947 23.17595,16.512018 20.198082,12.56167 Z"
       sodipodi:nodetypes="ccccccccc" />
    <path
       d="M 22.412469,12.561805 H 20.94262 l 3.722093,4.938068 -3.722093,4.938066 h 1.488838 l 1.861045,-2.469033 1.116629,-1.481421 2.977673,3.950454 h 1.488839 l -3.722095,-4.938067 -0.744417,-0.987613 z"
       style="fill:#008080;stroke:#008080;stroke-width:0.123759;stroke-dasharray:none;stroke-opacity:1"
       id="path38-9"
       sodipodi:nodetypes="cccccccccccc" />
    <path
       d="m 28.386805,12.561805 -2.605465,3.456646 0.744419,0.987615 3.349885,-4.444262 z"
       style="fill:#008080;fill-opacity:1;stroke:#008080;stroke-width:0.123759;stroke-dasharray:none;stroke-opacity:1"
       id="path39"
       sodipodi:nodetypes="ccccc" />
  </g>
</svg>
