<?xml version="1.0" encoding="UTF-8" standalone="no"?>
<!-- Created with Inkscape (http://www.inkscape.org/) -->

<svg
   width="35mm"
   height="35mm"
   viewBox="0 0 35 35"
   version="1.1"
   id="svg1"
   inkscape:version="1.3.2 (091e20ef0f, 2023-11-25, custom)"
   sodipodi:docname="gex3-squered.svg"
   xmlns:inkscape="http://www.inkscape.org/namespaces/inkscape"
   xmlns:sodipodi="http://sodipodi.sourceforge.net/DTD/sodipodi-0.dtd"
   xmlns="http://www.w3.org/2000/svg"
   xmlns:svg="http://www.w3.org/2000/svg">
  <sodipodi:namedview
     id="namedview1"
     pagecolor="#505050"
     bordercolor="#ffffff"
     borderopacity="1"
     inkscape:showpageshadow="0"
     inkscape:pageopacity="0"
     inkscape:pagecheckerboard="1"
     inkscape:deskcolor="#505050"
     inkscape:document-units="mm"
     showgrid="true"
     inkscape:zoom="3.3638608"
     inkscape:cx="89.629155"
     inkscape:cy="92.601929"
     inkscape:window-width="1916"
     inkscape:window-height="1175"
     inkscape:window-x="0"
     inkscape:window-y="0"
     inkscape:window-maximized="0"
     inkscape:current-layer="layer2">
    <inkscape:grid
       id="grid1"
       units="mm"
       originx="0"
       originy="0"
       spacingx="17.5"
       spacingy="17.5"
       empcolor="#0099e5"
       empopacity="0.30196078"
       color="#0099e5"
       opacity="0.14901961"
       empspacing="5"
       dotted="false"
       gridanglex="30"
       gridanglez="30"
       visible="true" />
  </sodipodi:namedview>
  <defs
     id="defs1" />
  <g
     inkscape:groupmode="layer"
     id="layer2"
     inkscape:label="Warstwa 2"
     style="display:inline"
     transform="translate(2.5)">
    <path
       id="rect30-6"
       style="display:inline;fill:#b07123;fill-opacity:1;stroke:#b07123;stroke-width:0.12376;stroke-linejoin:miter;stroke-dasharray:none;stroke-opacity:1;paint-order:normal"
       d="m 5.5706414,12.562025 c -1.099765,0 -1.98502,0.880839 -1.98502,1.975087 v 5.925774 c 0,1.094249 0.885255,1.975088 1.98502,1.975088 h 3.9705538 c 1.0997648,0 1.9850188,-0.880839 1.9850188,-1.975088 v -2.469115 l 0.992511,7.6e-5 v -0.987619 h -1.98502 -3.9705536 v 0.494026 0.493517 h 3.9705536 v 1.975599 c 0,0.820697 -0.6641978,1.481061 -1.4890218,1.481061 H 6.0671524 c -0.824823,0 -1.489021,-0.660364 -1.489021,-1.481061 v -4.938229 c 0,-0.820696 0.664198,-1.481572 1.489021,-1.481572 h 2.9775308 c 0.824824,0 1.4890218,0.660876 1.4890218,1.481572 h 0.992509 v -0.494027 c 0,-1.094249 -0.885254,-1.975087 -1.9850188,-1.975087 z"
       sodipodi:nodetypes="ssssssccccccccsssssssccsss" />
    <path
       id="rect33-2"
       style="display:inline;fill:#98b023;fill-opacity:1;stroke:#98b023;stroke-width:0.12376;stroke-linejoin:miter;stroke-dasharray:none;stroke-opacity:1;paint-order:normal"
       d="m 12.518725,12.562025 v 9.87595 h 0.99251 2.977529 l 0.744255,-0.987544 h -3.721784 v -3.45666 h 6.327957 l 0.37187,-0.493517 -0.372384,-0.494026 h -6.327443 v -3.45666 h 3.721784 l -0.744255,-0.987543 h -2.977529 z m 4.714806,0 0.248257,0.329181 v -0.329181 z m 3.349914,4.444203 0.372384,0.494026 -0.372384,0.493517 h 1.364894 v -0.493517 -0.494026 z m -3.101657,5.102565 -0.248257,0.329181 h 0.248257 z"
       sodipodi:nodetypes="ccccccccccccccccccccccccccccccc" />
    <g
       id="g2"
       style="display:inline;fill:#23b03b;fill-opacity:1;stroke:#23b03b;stroke-opacity:1"
       transform="translate(1.2905874,12.500116)">
      <path
         d="m 17.412794,0.06204404 h -1.469878 l 3.722168,4.93802056 -3.722168,4.9380205 h 1.488867 L 19.292867,7.469075 20.409518,5.9876688 23.387251,9.9380851 H 24.87612 L 21.15395,5.0000646 20.409518,4.0124605 Z"
         style="fill:#23b03b;fill-opacity:1;stroke:#23b03b;stroke-width:0.12376;stroke-dasharray:none;stroke-opacity:1"
         id="path38-9-9"
         sodipodi:nodetypes="cccccccccccc" />
      <path
         d="M 23.387251,0.062044 20.781734,3.5186584 21.526168,4.5062626 24.87612,0.06204404 Z"
         style="fill:#23b03b;fill-opacity:1;stroke:#23b03b;stroke-width:0.12376;stroke-dasharray:none;stroke-opacity:1"
         id="path39-1"
         sodipodi:nodetypes="ccccc" />
    </g>
  </g>
</svg>
