<?xml version="1.0" encoding="UTF-8" standalone="no"?>
<!-- Created with Inkscape (http://www.inkscape.org/) -->

<svg
   width="8mm"
   height="6mm"
   viewBox="0 0 8 6"
   version="1.1"
   id="svg1"
   sodipodi:docname="gex4.svg"
   inkscape:version="1.3.2 (091e20ef0f, 2023-11-25, custom)"
   xmlns:inkscape="http://www.inkscape.org/namespaces/inkscape"
   xmlns:sodipodi="http://sodipodi.sourceforge.net/DTD/sodipodi-0.dtd"
   xmlns="http://www.w3.org/2000/svg"
   xmlns:svg="http://www.w3.org/2000/svg">
  <sodipodi:namedview
     id="namedview1"
     pagecolor="#505050"
     bordercolor="#ffffff"
     borderopacity="1"
     inkscape:showpageshadow="0"
     inkscape:pageopacity="0"
     inkscape:pagecheckerboard="1"
     inkscape:deskcolor="#505050"
     inkscape:document-units="mm"
     showgrid="true"
     inkscape:zoom="11.313709"
     inkscape:cx="13.258252"
     inkscape:cy="29.831067"
     inkscape:window-width="956"
     inkscape:window-height="1175"
     inkscape:window-x="0"
     inkscape:window-y="0"
     inkscape:window-maximized="0"
     inkscape:current-layer="layer1">
    <inkscape:grid
       id="grid1"
       units="mm"
       originx="0"
       originy="0"
       spacingx="0.99999998"
       spacingy="1"
       empcolor="#0099e5"
       empopacity="0.30196078"
       color="#0099e5"
       opacity="0.14901961"
       empspacing="5"
       dotted="false"
       gridanglex="30"
       gridanglez="30"
       visible="true" />
  </sodipodi:namedview>
  <defs
     id="defs1" />
  <g
     inkscape:label="Warstwa 1"
     inkscape:groupmode="layer"
     id="layer1">
    <path
       id="path5-2"
       style="display:inline;fill:#fd0000;fill-opacity:1;stroke:none;stroke-width:0;stroke-dasharray:none"
       d="M 2.7141813,0.99999997 C 1.7669442,1.0006379 0.99956821,1.8960409 1.0000002,2.9999463 c 2.725e-4,1.1034325 0.3839949,1.9981677 0.8566474,1.9999453 0.473345,5.04e-4 0.8572603,-0.8948991 0.8575337,-1.9999453 -0.1250066,-9e-7 -0.071426,1.202e-4 -0.4283237,0 6.8e-6,0.8288053 -0.1919922,1.5005954 -0.4287669,1.5002176 C 1.6204893,4.4996849 1.4287602,3.8281468 1.4287671,2.9999463 1.4287456,2.1714439 2.0042399,1.4997799 2.7141813,1.4997279 Z M 1.8570907,1.4997279 c 0.00205,1.2e-4 0.00412,2.919e-4 0.00617,5.169e-4 h -0.00886 c 8.572e-4,-1.821e-4 0.0018,-3.54e-4 0.00265,-5.169e-4 z" />
    <path
       id="path13-8"
       style="display:inline;fill:#fd0000;fill-opacity:1;stroke-width:0"
       d="M 3.1428573,0.99999997 4.9373013,2.9994294 4.0000386,4.9993749 4.2675744,4.9998916 5.0715128,3.2852097 6.5714287,4.9998916 7.0000002,4.9993749 5.2052801,2.9994294 6.1425436,0.99999997 H 5.8745639 L 5.0715128,2.7136491 3.5714288,0.99999997 Z"
       sodipodi:nodetypes="ccccccccccccc" />
    <rect
       style="display:inline;fill:#fd0000;fill-opacity:1;stroke:none;stroke-width:0;stroke-dasharray:none"
       id="rect16-9"
       width="2.1428573"
       height="0.50001699"
       x="1.8571423"
       y="3.0000677"
       ry="0" />
    <path
       id="path16-7"
       style="display:inline;fill:#fd0000;fill-opacity:1;stroke:none;stroke-width:0"
       d="M 2.7141813,0.99999997 V 1.5002448 L 3.5916119,1.5000168 3.1428573,0.99999997 Z m 0,2.50019123 c 3.934e-4,0.8243621 0.5708837,1.4938795 1.277441,1.4991837 H 3.0012068 c 0.041014,9.768e-4 0.08817,5.167e-4 0.1417414,5.167e-4 H 4.0000386 V 4.9993749 L 4.233911,4.5001639 H 4.0000386 C 3.5266928,4.5001299 3.1429773,4.0524469 3.1429482,3.5001912 Z"
       sodipodi:nodetypes="ccccccccscccccc" />
    <ellipse
       style="display:inline;fill:#00ffff;fill-opacity:1;stroke:none;stroke-width:0;stroke-dasharray:none"
       id="path17-3"
       cx="2.6022284"
       cy="2.2282135"
       rx="0.54062837"
       ry="0.2283697" />
  </g>
</svg>
