<?xml version="1.0" encoding="UTF-8" standalone="no"?>
<!-- Created with Inkscape (http://www.inkscape.org/) -->

<svg
   width="8mm"
   height="8mm"
   viewBox="0 0 8 8"
   version="1.1"
   id="svg1"
   sodipodi:docname="gex4-squered.svg"
   inkscape:version="1.3.2 (091e20ef0f, 2023-11-25, custom)"
   xmlns:inkscape="http://www.inkscape.org/namespaces/inkscape"
   xmlns:sodipodi="http://sodipodi.sourceforge.net/DTD/sodipodi-0.dtd"
   xmlns="http://www.w3.org/2000/svg"
   xmlns:svg="http://www.w3.org/2000/svg">
  <sodipodi:namedview
     id="namedview1"
     pagecolor="#505050"
     bordercolor="#ffffff"
     borderopacity="1"
     inkscape:showpageshadow="0"
     inkscape:pageopacity="0"
     inkscape:pagecheckerboard="1"
     inkscape:deskcolor="#505050"
     inkscape:document-units="mm"
     showgrid="true"
     inkscape:zoom="11.313709"
     inkscape:cx="13.258252"
     inkscape:cy="29.831067"
     inkscape:window-width="956"
     inkscape:window-height="1175"
     inkscape:window-x="0"
     inkscape:window-y="0"
     inkscape:window-maximized="0"
     inkscape:current-layer="layer1">
    <inkscape:grid
       id="grid1"
       units="mm"
       originx="0"
       originy="0"
       spacingx="0.99999998"
       spacingy="1"
       empcolor="#0099e5"
       empopacity="0.30196078"
       color="#0099e5"
       opacity="0.14901961"
       empspacing="5"
       dotted="false"
       gridanglex="30"
       gridanglez="30"
       visible="true" />
  </sodipodi:namedview>
  <defs
     id="defs1" />
  <g
     inkscape:label="Warstwa 1"
     inkscape:groupmode="layer"
     id="layer1">
    <path
       id="path5-2"
       style="display:inline;fill:#fd0000;fill-opacity:1;stroke:none;stroke-width:0;stroke-dasharray:none"
       d="M 2.7141813,2.0000001 C 1.7669442,2.000638 0.99956822,2.896041 1.0000002,3.9999464 c 2.725e-4,1.1034327 0.3839949,1.998168 0.8566474,1.9999456 0.473345,5.04e-4 0.8572603,-0.8948992 0.8575337,-1.9999456 -0.1250066,-8e-7 -0.071426,1.203e-4 -0.4283237,0 C 2.2858644,4.8287518 2.0938654,5.500542 1.8570907,5.5001642 1.6204893,5.4996852 1.4287602,4.828147 1.4287671,3.9999464 1.4287456,3.1714441 2.0042399,2.49978 2.7141813,2.499728 Z M 1.8570907,2.499728 c 0.00205,1.2e-4 0.00412,2.919e-4 0.00617,5.169e-4 h -0.00886 c 8.572e-4,-1.821e-4 0.0018,-3.54e-4 0.00265,-5.169e-4 z" />
    <path
       id="path13-8"
       style="display:inline;fill:#fd0000;fill-opacity:1;stroke-width:0"
       d="M 3.1428573,2.0000001 4.9373013,3.9994296 4.0000386,5.9993752 4.2675744,5.999892 5.0715128,4.2852099 6.5714287,5.999892 7.0000002,5.9993752 5.2052801,3.9994296 6.1425436,2.0000001 H 5.8745639 L 5.0715128,3.7136493 3.5714288,2.0000001 Z"
       sodipodi:nodetypes="ccccccccccccc" />
    <rect
       style="display:inline;fill:#fd0000;fill-opacity:1;stroke:none;stroke-width:0;stroke-dasharray:none"
       id="rect16-9"
       width="2.1428573"
       height="0.50001699"
       x="1.8571423"
       y="4.0000677"
       ry="0" />
    <path
       id="path16-7"
       style="display:inline;fill:#fd0000;fill-opacity:1;stroke:none;stroke-width:0"
       d="M 2.7141813,2.0000001 V 2.5002449 L 3.5916119,2.5000169 3.1428573,2.0000001 Z m 0,2.5001913 C 2.7145747,5.3245536 3.285065,5.994071 3.9916223,5.9993752 H 3.0012068 c 0.041014,9.768e-4 0.08817,5.168e-4 0.1417414,5.168e-4 H 4.0000386 V 5.9993752 L 4.233911,5.5001642 H 4.0000386 C 3.5266928,5.5001302 3.1429773,5.0524472 3.1429482,4.5001914 Z"
       sodipodi:nodetypes="ccccccccscccccc" />
    <ellipse
       style="display:inline;fill:#00ffff;fill-opacity:1;stroke:none;stroke-width:0;stroke-dasharray:none"
       id="path17-3"
       cx="2.6022284"
       cy="3.2282138"
       rx="0.54062837"
       ry="0.22836971" />
  </g>
</svg>
